<mxfile host="Electron" agent="Mozilla/5.0 (Windows NT 10.0; Win64; x64) AppleWebKit/537.36 (KHTML, like Gecko) draw.io/26.0.4 Chrome/128.0.6613.186 Electron/32.2.5 Safari/537.36" version="26.0.4">
  <diagram name="Страница — 1" id="yPz3XxtK4vsenGW7H9HK">
    <mxGraphModel dx="1674" dy="836" grid="1" gridSize="10" guides="1" tooltips="1" connect="1" arrows="1" fold="1" page="1" pageScale="1" pageWidth="2336" pageHeight="1654" math="0" shadow="0">
      <root>
        <mxCell id="0" />
        <mxCell id="1" parent="0" />
        <mxCell id="jk8pZAf95kcXgOl9ytWV-48" value="" style="rounded=0;whiteSpace=wrap;html=1;dashed=1;" parent="1" vertex="1">
          <mxGeometry x="1165" y="330" width="490" height="240" as="geometry" />
        </mxCell>
        <mxCell id="jk8pZAf95kcXgOl9ytWV-1" value="Стажёр библиотекаря" style="shape=umlActor;verticalLabelPosition=bottom;verticalAlign=top;html=1;outlineConnect=0;" parent="1" vertex="1">
          <mxGeometry x="1005" y="570" width="30" height="60" as="geometry" />
        </mxCell>
        <mxCell id="jk8pZAf95kcXgOl9ytWV-5" value="Оформить факт выдачи&amp;nbsp; книги читателю" style="ellipse;whiteSpace=wrap;html=1;" parent="1" vertex="1">
          <mxGeometry x="1214" y="390" width="120" height="80" as="geometry" />
        </mxCell>
        <mxCell id="jk8pZAf95kcXgOl9ytWV-6" value="Оформить факт возврат&amp;nbsp; книги читателем" style="ellipse;whiteSpace=wrap;html=1;" parent="1" vertex="1">
          <mxGeometry x="1214" y="480" width="120" height="80" as="geometry" />
        </mxCell>
        <mxCell id="jk8pZAf95kcXgOl9ytWV-7" value="Ввести информацию о состоянии экземпляра книги" style="ellipse;whiteSpace=wrap;html=1;" parent="1" vertex="1">
          <mxGeometry x="885" y="200" width="150" height="100" as="geometry" />
        </mxCell>
        <mxCell id="jk8pZAf95kcXgOl9ytWV-36" value="Изменить факт выдачи&amp;nbsp; книги читателю" style="ellipse;whiteSpace=wrap;html=1;" parent="1" vertex="1">
          <mxGeometry x="1346" y="390" width="120" height="80" as="geometry" />
        </mxCell>
        <mxCell id="jk8pZAf95kcXgOl9ytWV-37" value="Удалить факт выдачи&amp;nbsp; книги читателю" style="ellipse;whiteSpace=wrap;html=1;" parent="1" vertex="1">
          <mxGeometry x="1486" y="390" width="120" height="80" as="geometry" />
        </mxCell>
        <mxCell id="jk8pZAf95kcXgOl9ytWV-38" value="Изменить факт возврата&amp;nbsp; книги читателем" style="ellipse;whiteSpace=wrap;html=1;" parent="1" vertex="1">
          <mxGeometry x="1346" y="480" width="120" height="80" as="geometry" />
        </mxCell>
        <mxCell id="jk8pZAf95kcXgOl9ytWV-39" value="Удалить факт возврат&amp;nbsp; книги читателем" style="ellipse;whiteSpace=wrap;html=1;" parent="1" vertex="1">
          <mxGeometry x="1486" y="480" width="120" height="80" as="geometry" />
        </mxCell>
        <mxCell id="jk8pZAf95kcXgOl9ytWV-49" value="Выдача/возврат экземпляров книг" style="text;html=1;align=center;verticalAlign=middle;whiteSpace=wrap;rounded=0;fontStyle=1" parent="1" vertex="1">
          <mxGeometry x="1275" y="340" width="230" height="30" as="geometry" />
        </mxCell>
        <mxCell id="jk8pZAf95kcXgOl9ytWV-55" value="" style="endArrow=classic;html=1;rounded=0;entryX=0;entryY=0.75;entryDx=0;entryDy=0;" parent="1" target="jk8pZAf95kcXgOl9ytWV-48" edge="1">
          <mxGeometry width="50" height="50" relative="1" as="geometry">
            <mxPoint x="1050" y="570" as="sourcePoint" />
            <mxPoint x="1110" y="650" as="targetPoint" />
          </mxGeometry>
        </mxCell>
        <mxCell id="jk8pZAf95kcXgOl9ytWV-59" value="" style="endArrow=classic;html=1;rounded=0;entryX=1;entryY=0.5;entryDx=0;entryDy=0;exitX=0;exitY=0;exitDx=0;exitDy=0;dashed=1;" parent="1" source="jk8pZAf95kcXgOl9ytWV-48" target="jk8pZAf95kcXgOl9ytWV-7" edge="1">
          <mxGeometry width="50" height="50" relative="1" as="geometry">
            <mxPoint x="895" y="680" as="sourcePoint" />
            <mxPoint x="1035" y="250" as="targetPoint" />
          </mxGeometry>
        </mxCell>
        <mxCell id="jk8pZAf95kcXgOl9ytWV-61" value="&amp;lt;&amp;lt;включает&amp;gt;&amp;gt;" style="text;html=1;align=center;verticalAlign=middle;whiteSpace=wrap;rounded=0;" parent="1" vertex="1">
          <mxGeometry x="1123" y="270" width="60" height="30" as="geometry" />
        </mxCell>
        <mxCell id="jk8pZAf95kcXgOl9ytWV-63" value="" style="rounded=0;whiteSpace=wrap;html=1;dashed=1;" parent="1" vertex="1">
          <mxGeometry x="330" y="270" width="450" height="440" as="geometry" />
        </mxCell>
        <mxCell id="jk8pZAf95kcXgOl9ytWV-64" value="Просмотр справчников" style="ellipse;whiteSpace=wrap;html=1;" parent="1" vertex="1">
          <mxGeometry x="362.5" y="320" width="120" height="80" as="geometry" />
        </mxCell>
        <mxCell id="jk8pZAf95kcXgOl9ytWV-65" value="Просмотр каталога книг и экземпляров книг" style="ellipse;whiteSpace=wrap;html=1;" parent="1" vertex="1">
          <mxGeometry x="362.5" y="420" width="120" height="80" as="geometry" />
        </mxCell>
        <mxCell id="jk8pZAf95kcXgOl9ytWV-66" value="Поиск по каталогу книг и экземплярам книг" style="ellipse;whiteSpace=wrap;html=1;" parent="1" vertex="1">
          <mxGeometry x="497.5" y="420" width="120" height="80" as="geometry" />
        </mxCell>
        <mxCell id="jk8pZAf95kcXgOl9ytWV-67" value="Поиск по справочникам" style="ellipse;whiteSpace=wrap;html=1;" parent="1" vertex="1">
          <mxGeometry x="497.5" y="330" width="120" height="80" as="geometry" />
        </mxCell>
        <mxCell id="jk8pZAf95kcXgOl9ytWV-68" value="Фильтрация записей справочников" style="ellipse;whiteSpace=wrap;html=1;" parent="1" vertex="1">
          <mxGeometry x="627.5" y="330" width="120" height="80" as="geometry" />
        </mxCell>
        <mxCell id="jk8pZAf95kcXgOl9ytWV-69" value="Работа с уданными библиотеки" style="text;html=1;align=center;verticalAlign=middle;whiteSpace=wrap;rounded=0;fontStyle=1" parent="1" vertex="1">
          <mxGeometry x="462.5" y="280" width="165" height="30" as="geometry" />
        </mxCell>
        <mxCell id="jk8pZAf95kcXgOl9ytWV-70" value="Фильтрация записей каталога книг и экземпляров книг" style="ellipse;whiteSpace=wrap;html=1;" parent="1" vertex="1">
          <mxGeometry x="627.5" y="420" width="120" height="80" as="geometry" />
        </mxCell>
        <mxCell id="jk8pZAf95kcXgOl9ytWV-71" value="Просмотр фактов ухода/прихода и выдачи/возвратов" style="ellipse;whiteSpace=wrap;html=1;" parent="1" vertex="1">
          <mxGeometry x="360" y="510" width="120" height="80" as="geometry" />
        </mxCell>
        <mxCell id="jk8pZAf95kcXgOl9ytWV-72" value="Поиск по фактам ухода/прихода и выдачи/возвратов" style="ellipse;whiteSpace=wrap;html=1;" parent="1" vertex="1">
          <mxGeometry x="502.5" y="510" width="120" height="80" as="geometry" />
        </mxCell>
        <mxCell id="jk8pZAf95kcXgOl9ytWV-73" value="Фильрация записей фактов ухода/прихода и выдачи/возвратов" style="ellipse;whiteSpace=wrap;html=1;" parent="1" vertex="1">
          <mxGeometry x="627.5" y="510" width="120" height="80" as="geometry" />
        </mxCell>
        <mxCell id="jk8pZAf95kcXgOl9ytWV-74" value="Просмотр пользователей и регистраций" style="ellipse;whiteSpace=wrap;html=1;" parent="1" vertex="1">
          <mxGeometry x="360" y="600" width="120" height="80" as="geometry" />
        </mxCell>
        <mxCell id="jk8pZAf95kcXgOl9ytWV-75" value="Поиск по пользователям" style="ellipse;whiteSpace=wrap;html=1;" parent="1" vertex="1">
          <mxGeometry x="502.5" y="600" width="120" height="80" as="geometry" />
        </mxCell>
        <mxCell id="jk8pZAf95kcXgOl9ytWV-76" value="Фильтрация записей пользователей" style="ellipse;whiteSpace=wrap;html=1;" parent="1" vertex="1">
          <mxGeometry x="627.5" y="600" width="120" height="80" as="geometry" />
        </mxCell>
        <mxCell id="jk8pZAf95kcXgOl9ytWV-78" value="Упрощённая выгрузка списков в Excel для анализа" style="ellipse;whiteSpace=wrap;html=1;" parent="1" vertex="1">
          <mxGeometry x="90" y="610" width="120" height="80" as="geometry" />
        </mxCell>
        <mxCell id="jk8pZAf95kcXgOl9ytWV-79" value="" style="endArrow=classic;html=1;rounded=0;entryX=0.5;entryY=0;entryDx=0;entryDy=0;exitX=0.002;exitY=0.455;exitDx=0;exitDy=0;exitPerimeter=0;dashed=1;" parent="1" source="jk8pZAf95kcXgOl9ytWV-63" target="jk8pZAf95kcXgOl9ytWV-78" edge="1">
          <mxGeometry width="50" height="50" relative="1" as="geometry">
            <mxPoint x="930" y="580" as="sourcePoint" />
            <mxPoint x="319.9999999999959" y="729.9999999999998" as="targetPoint" />
          </mxGeometry>
        </mxCell>
        <mxCell id="hLrI45RPySUn7U1taJ00-1" value="" style="rounded=0;whiteSpace=wrap;html=1;dashed=1;" vertex="1" parent="1">
          <mxGeometry x="332.5" y="790" width="450" height="240" as="geometry" />
        </mxCell>
        <mxCell id="hLrI45RPySUn7U1taJ00-2" value="Добавить бронь" style="ellipse;whiteSpace=wrap;html=1;" vertex="1" parent="1">
          <mxGeometry x="360" y="840" width="120" height="80" as="geometry" />
        </mxCell>
        <mxCell id="hLrI45RPySUn7U1taJ00-5" value="Изменить бронь" style="ellipse;whiteSpace=wrap;html=1;" vertex="1" parent="1">
          <mxGeometry x="495" y="840" width="120" height="80" as="geometry" />
        </mxCell>
        <mxCell id="hLrI45RPySUn7U1taJ00-6" value="Удалить бронь" style="ellipse;whiteSpace=wrap;html=1;" vertex="1" parent="1">
          <mxGeometry x="625" y="840" width="120" height="80" as="geometry" />
        </mxCell>
        <mxCell id="hLrI45RPySUn7U1taJ00-7" value="Работа с бронями экземпляров книг читателем" style="text;html=1;align=center;verticalAlign=middle;whiteSpace=wrap;rounded=0;fontStyle=1" vertex="1" parent="1">
          <mxGeometry x="458.75" y="797" width="207.5" height="30" as="geometry" />
        </mxCell>
        <mxCell id="hLrI45RPySUn7U1taJ00-9" value="Просмотр списка брони" style="ellipse;whiteSpace=wrap;html=1;" vertex="1" parent="1">
          <mxGeometry x="360" y="930" width="120" height="80" as="geometry" />
        </mxCell>
        <mxCell id="hLrI45RPySUn7U1taJ00-10" value="Поиск по списку брони" style="ellipse;whiteSpace=wrap;html=1;" vertex="1" parent="1">
          <mxGeometry x="495" y="930" width="120" height="80" as="geometry" />
        </mxCell>
        <mxCell id="hLrI45RPySUn7U1taJ00-11" value="Фильрация записей списка брони" style="ellipse;whiteSpace=wrap;html=1;" vertex="1" parent="1">
          <mxGeometry x="625" y="930" width="120" height="80" as="geometry" />
        </mxCell>
        <mxCell id="hLrI45RPySUn7U1taJ00-12" value="" style="endArrow=classic;html=1;rounded=0;entryX=0.5;entryY=1;entryDx=0;entryDy=0;exitX=0.25;exitY=0;exitDx=0;exitDy=0;dashed=1;" edge="1" parent="1" source="hLrI45RPySUn7U1taJ00-1" target="jk8pZAf95kcXgOl9ytWV-78">
          <mxGeometry width="50" height="50" relative="1" as="geometry">
            <mxPoint x="660" y="680" as="sourcePoint" />
            <mxPoint x="710" y="630" as="targetPoint" />
          </mxGeometry>
        </mxCell>
        <mxCell id="hLrI45RPySUn7U1taJ00-13" value="&amp;lt;&amp;lt;включает&amp;gt;&amp;gt;" style="text;html=1;align=center;verticalAlign=middle;whiteSpace=wrap;rounded=0;" vertex="1" parent="1">
          <mxGeometry x="180" y="510" width="60" height="30" as="geometry" />
        </mxCell>
        <mxCell id="hLrI45RPySUn7U1taJ00-22" value="&amp;lt;&amp;lt;включает&amp;gt;&amp;gt;" style="text;html=1;align=center;verticalAlign=middle;whiteSpace=wrap;rounded=0;" vertex="1" parent="1">
          <mxGeometry x="210" y="690" width="60" height="30" as="geometry" />
        </mxCell>
        <mxCell id="hLrI45RPySUn7U1taJ00-25" value="" style="endArrow=classic;html=1;rounded=0;entryX=1;entryY=0.5;entryDx=0;entryDy=0;" edge="1" parent="1" target="hLrI45RPySUn7U1taJ00-1">
          <mxGeometry width="50" height="50" relative="1" as="geometry">
            <mxPoint x="950" y="670" as="sourcePoint" />
            <mxPoint x="620" y="710" as="targetPoint" />
          </mxGeometry>
        </mxCell>
        <mxCell id="hLrI45RPySUn7U1taJ00-26" value="" style="endArrow=classic;html=1;rounded=0;entryX=1;entryY=0.5;entryDx=0;entryDy=0;" edge="1" parent="1" target="jk8pZAf95kcXgOl9ytWV-63">
          <mxGeometry width="50" height="50" relative="1" as="geometry">
            <mxPoint x="960" y="590" as="sourcePoint" />
            <mxPoint x="620" y="470" as="targetPoint" />
          </mxGeometry>
        </mxCell>
      </root>
    </mxGraphModel>
  </diagram>
</mxfile>
